<?xml version="1.0" standalone="no"?>
<!DOCTYPE svg PUBLIC "-//W3C//DTD SVG 20010904//EN"
 "http://www.w3.org/TR/2001/REC-SVG-20010904/DTD/svg10.dtd">
<svg version="1.0" xmlns="http://www.w3.org/2000/svg"
 width="1000.000000pt" height="1000.000000pt" viewBox="0 0 1000.000000 1000.000000"
 preserveAspectRatio="xMidYMid meet">
<metadata>
Created by potrace 1.16, written by Peter Selinger 2001-2019
</metadata>
<g transform="translate(0.000000,1000.000000) scale(0.100000,-0.100000)"
fill="#000000" stroke="none">
<path d="M0 5000 l0 -5000 5000 0 5000 0 0 5000 0 5000 -5000 0 -5000 0 0
-5000z m7247 1013 c-3 -2434 -1 -2315 -52 -2588 -101 -541 -336 -952 -715
-1255 -266 -213 -638 -377 -1016 -449 -251 -47 -345 -55 -689 -55 -352 -1
-401 3 -685 60 -568 113 -1127 449 -1499 900 -79 96 -80 98 -63 119 21 23 179
199 591 655 162 179 309 340 327 359 l33 35 129 -130 c232 -233 471 -392 706
-468 140 -46 244 -59 410 -53 281 11 434 63 562 191 113 114 172 240 217 461
21 110 21 114 25 1578 l3 1467 -1236 0 -1235 0 0 720 0 720 2095 0 2096 0 -4
-2267z"/>
</g>
</svg>
